<svg width="30" height="30" viewBox="0 0 30 30" fill="none" xmlns="http://www.w3.org/2000/svg">
<path d="M27.3745 10.7474C30.0728 13.0678 30.0728 17.2457 27.3745 19.5661L17.1112 28.3921C13.3408 31.6345 7.50391 28.9557 7.50391 23.9827L7.50391 6.33079C7.50391 1.35786 13.3408 -1.32099 17.1113 1.92146L27.3745 10.7474Z" fill="#2A6049"/>
<path d="M16.4644 11.5101L9.22965 3.8535C7.57455 2.10187 4.78727 2.10187 3.13217 3.8535C1.78954 5.27443 1.60655 7.43447 2.691 9.06102L4.79145 12.2114C5.98075 13.9952 5.98075 16.3192 4.79145 18.103L2.69101 21.2534C1.60655 22.8799 1.78954 25.04 3.13217 26.4609C4.78727 28.2125 7.57455 28.2125 9.22965 26.4609L16.4644 18.8043C18.3984 16.7575 18.3984 13.5569 16.4644 11.5101Z" fill="#8AC200"/>
</svg>
