<svg width="94" height="94" viewBox="0 0 94 94" fill="none" xmlns="http://www.w3.org/2000/svg">
<path d="M46.9992 93.9941C72.9561 93.9941 93.9983 72.9528 93.9983 46.997C93.9983 21.0413 72.9561 0 46.9992 0C21.0422 0 0 21.0413 0 46.997C0 72.9528 21.0422 93.9941 46.9992 93.9941Z" fill="#F5F5F7"/>
<path d="M75.2018 94.0002H18.8027V33.2174C21.461 33.2144 24.0096 32.1572 25.8892 30.2776C27.7689 28.398 28.8262 25.8496 28.8292 23.1914H65.1753C65.1724 24.5082 65.4308 25.8124 65.9354 27.0287C66.44 28.245 67.1808 29.3492 68.1149 30.2773C69.043 31.2117 70.1473 31.9526 71.3638 32.4573C72.5802 32.962 73.8847 33.2204 75.2018 33.2174V94.0002Z" fill="white"/>
<path d="M55.5314 68.8486H39.2384C38.2001 68.8486 37.3584 69.6903 37.3584 70.7285C37.3584 71.7667 38.2001 72.6084 39.2384 72.6084H55.5314C56.5697 72.6084 57.4114 71.7667 57.4114 70.7285C57.4114 69.6903 56.5697 68.8486 55.5314 68.8486Z" fill="#F1F1F3"/>
<path d="M60.7858 76.3721H33.213C32.1747 76.3721 31.333 77.2137 31.333 78.252C31.333 79.2902 32.1747 80.1318 33.213 80.1318H60.7858C61.8241 80.1318 62.6658 79.2902 62.6658 78.252C62.6658 77.2137 61.8241 76.3721 60.7858 76.3721Z" fill="#F1F1F3"/>
<path d="M62.2854 56.9813L49.9245 35.6063C49.6286 35.0922 49.2024 34.6652 48.6889 34.3683C48.1754 34.0714 47.5927 33.915 46.9995 33.915C46.4063 33.915 45.8236 34.0714 45.3101 34.3683C44.7966 34.6652 44.3704 35.0922 44.0745 35.6063L31.7136 56.9813C31.4133 57.4928 31.2537 58.0746 31.251 58.6677C31.2483 59.2608 31.4027 59.844 31.6983 60.3582C31.9939 60.8724 32.4204 61.2992 32.9343 61.5952C33.4483 61.8912 34.0314 62.046 34.6245 62.0438H59.3745C59.9676 62.046 60.5507 61.8912 61.0647 61.5952C61.5786 61.2992 62.005 60.8724 62.3007 60.3582C62.5963 59.844 62.7507 59.2608 62.748 58.6677C62.7453 58.0746 62.5857 57.4928 62.2854 56.9813ZM45.8745 45.1688C45.8745 44.8704 45.993 44.5843 46.204 44.3733C46.415 44.1623 46.7011 44.0438 46.9995 44.0438C47.2979 44.0438 47.584 44.1623 47.795 44.3733C48.006 44.5843 48.1245 44.8704 48.1245 45.1688V50.7938C48.1245 51.0922 48.006 51.3783 47.795 51.5893C47.584 51.8003 47.2979 51.9188 46.9995 51.9188C46.7011 51.9188 46.415 51.8003 46.204 51.5893C45.993 51.3783 45.8745 51.0922 45.8745 50.7938V45.1688ZM46.9995 57.5438C46.6657 57.5438 46.3395 57.4448 46.062 57.2594C45.7845 57.074 45.5682 56.8104 45.4404 56.5021C45.3127 56.1937 45.2793 55.8544 45.3444 55.5271C45.4095 55.1997 45.5702 54.8991 45.8062 54.6631C46.0422 54.4271 46.3429 54.2663 46.6703 54.2012C46.9976 54.1361 47.3369 54.1695 47.6453 54.2973C47.9536 54.425 48.2172 54.6413 48.4026 54.9188C48.588 55.1963 48.687 55.5225 48.687 55.8563C48.687 56.3039 48.5092 56.7331 48.1927 57.0495C47.8763 57.366 47.447 57.5438 46.9995 57.5438Z" fill="#E5BA4D"/>
</svg>
