<svg width="16" height="16" viewBox="0 0 16 16" fill="none" xmlns="http://www.w3.org/2000/svg">
<path d="M8 3.9165V5.08317" stroke="#2A6049" stroke-width="1.3" stroke-linecap="round" stroke-linejoin="round"/>
<path d="M8 10.9165V12.0832" stroke="#2A6049" stroke-width="1.3" stroke-linecap="round" stroke-linejoin="round"/>
<path d="M8 15C11.866 15 15 11.866 15 8C15 4.13401 11.866 1 8 1C4.13401 1 1 4.13401 1 8C1 11.866 4.13401 15 8 15Z" stroke="#2A6049" stroke-width="1.3" stroke-linecap="round" stroke-linejoin="round"/>
<path d="M6.25008 10.9168H8.87508C9.26186 10.9168 9.63279 10.7632 9.90628 10.4897C10.1798 10.2162 10.3334 9.84527 10.3334 9.4585C10.3334 9.07172 10.1798 8.70079 9.90628 8.4273C9.63279 8.15381 9.26186 8.00016 8.87508 8.00016H7.12508C6.73831 8.00016 6.36737 7.84652 6.09388 7.57303C5.82039 7.29954 5.66675 6.9286 5.66675 6.54183C5.66675 6.15506 5.82039 5.78412 6.09388 5.51063C6.36737 5.23714 6.73831 5.0835 7.12508 5.0835H9.75008" stroke="#2A6049" stroke-width="1.3" stroke-linecap="round" stroke-linejoin="round"/>
</svg>
