<svg width="16" height="16" viewBox="0 0 16 16" fill="none" xmlns="http://www.w3.org/2000/svg">
<path d="M5.66667 10.3333H1.58333C1.42862 10.3333 1.28025 10.2719 1.17085 10.1625C1.06146 10.0531 1 9.90471 1 9.75V6.25C1 6.09529 1.06146 5.94692 1.17085 5.83752C1.28025 5.72812 1.42862 5.66667 1.58333 5.66667H5.66667V1.58333C5.66667 1.42862 5.72812 1.28025 5.83752 1.17085C5.94692 1.06146 6.09529 1 6.25 1H9.75C9.90471 1 10.0531 1.06146 10.1625 1.17085C10.2719 1.28025 10.3333 1.42862 10.3333 1.58333V5.66667H14.4167C14.5714 5.66667 14.7197 5.72812 14.8291 5.83752C14.9385 5.94692 15 6.09529 15 6.25V9.75C15 9.90471 14.9385 10.0531 14.8291 10.1625C14.7197 10.2719 14.5714 10.3333 14.4167 10.3333H10.3333V14.4167C10.3333 14.5714 10.2719 14.7197 10.1625 14.8291C10.0531 14.9385 9.90471 15 9.75 15H6.25C6.09529 15 5.94692 14.9385 5.83752 14.8291C5.72812 14.7197 5.66667 14.5714 5.66667 14.4167V10.3333Z" stroke="#2A6049" stroke-width="1.3" stroke-linecap="round" stroke-linejoin="round"/>
</svg>
