<svg width="15" height="15" viewBox="0 0 15 15" fill="none" xmlns="http://www.w3.org/2000/svg">
<path d="M7.4999 10.6482C9.23867 10.6482 10.6482 9.23867 10.6482 7.4999C10.6482 5.76112 9.23867 4.35156 7.4999 4.35156C5.76112 4.35156 4.35156 5.76112 4.35156 7.4999C4.35156 9.23867 5.76112 10.6482 7.4999 10.6482Z" stroke="#2A6049" stroke-width="1.3" stroke-linecap="round" stroke-linejoin="round"/>
<path d="M12.052 4.39758C12.2099 4.62365 12.3482 4.86284 12.4652 5.11251L14.164 6.05701C14.3761 7.00707 14.3784 7.99197 14.1706 8.94299L12.4652 9.88749C12.3482 10.1372 12.2099 10.3763 12.052 10.6024L12.0848 12.5505C11.3648 13.2065 10.5127 13.7008 9.58581 14L7.91325 12.9965C7.63813 13.0161 7.36194 13.0161 7.08682 12.9965L5.42082 13.9934C4.49095 13.6997 3.63604 13.2073 2.91527 12.5505L2.94807 10.609C2.79148 10.3798 2.65331 10.1385 2.53485 9.88749L0.83606 8.94299C0.62394 7.99293 0.621701 7.00802 0.829501 6.05701L2.53485 5.11251C2.65192 4.86284 2.79016 4.62365 2.94807 4.39758L2.91527 2.44955C3.63522 1.79349 4.48733 1.29922 5.41426 1L7.08682 2.00353C7.36194 1.98385 7.63813 1.98385 7.91325 2.00353L9.57925 1.00656C10.5091 1.30034 11.364 1.79269 12.0848 2.44955L12.052 4.39758Z" stroke="#2A6049" stroke-width="1.3" stroke-linecap="round" stroke-linejoin="round"/>
</svg>
