<svg width="30" height="31" viewBox="0 0 30 31" fill="none" xmlns="http://www.w3.org/2000/svg">
<circle cx="15" cy="15.375" r="15" fill="#F9F9FB"/>
<path d="M16.5 15.375C16.5 15.7211 16.3974 16.0595 16.2051 16.3472C16.0128 16.635 15.7395 16.8593 15.4197 16.9918C15.0999 17.1242 14.7481 17.1589 14.4086 17.0914C14.0691 17.0239 13.7573 16.8572 13.5126 16.6124C13.2678 16.3677 13.1012 16.0559 13.0336 15.7164C12.9661 15.3769 13.0008 15.0251 13.1332 14.7053C13.2657 14.3855 13.49 14.1122 13.7778 13.9199C14.0655 13.7276 14.4039 13.625 14.75 13.625C15.2136 13.6266 15.6578 13.8116 15.9856 14.1394C16.3135 14.4672 16.4984 14.9114 16.5 15.375ZM14.75 12.125C15.0961 12.125 15.4345 12.0224 15.7222 11.8301C16.01 11.6378 16.2343 11.3645 16.3668 11.0447C16.4992 10.7249 16.5339 10.3731 16.4664 10.0336C16.3989 9.69413 16.2322 9.38231 15.9874 9.13756C15.7427 8.89282 15.4309 8.72615 15.0914 8.65863C14.7519 8.5911 14.4001 8.62576 14.0803 8.75821C13.7605 8.89066 13.4872 9.11497 13.2949 9.40275C13.1026 9.69054 13 10.0289 13 10.375C13.0016 10.8386 13.1866 11.2828 13.5144 11.6106C13.8422 11.9385 14.2864 12.1234 14.75 12.125ZM14.75 18.625C14.4039 18.625 14.0655 18.7276 13.7778 18.9199C13.49 19.1122 13.2657 19.3855 13.1332 19.7053C13.0008 20.0251 12.9661 20.3769 13.0336 20.7164C13.1012 21.0559 13.2678 21.3677 13.5126 21.6124C13.7573 21.8572 14.0691 22.0239 14.4086 22.0914C14.7481 22.1589 15.0999 22.1242 15.4197 21.9918C15.7395 21.8593 16.0128 21.635 16.2051 21.3472C16.3974 21.0595 16.5 20.7211 16.5 20.375C16.4984 19.9114 16.3135 19.4672 15.9856 19.1394C15.6578 18.8116 15.2136 18.6266 14.75 18.625Z" fill="#9AA0AB"/>
</svg>
