<svg width="15" height="15" viewBox="0 0 15 15" fill="none" xmlns="http://www.w3.org/2000/svg">
<path d="M11.6955 7.5H8.74991C8.41839 7.5 8.10045 7.3683 7.86603 7.13388C7.63161 6.89946 7.49991 6.58152 7.49991 6.25V3.29625C7.50076 3.00874 7.43548 2.72488 7.30912 2.46663C7.18276 2.20837 6.99869 1.98264 6.77116 1.80687C6.55556 1.63613 6.30359 1.51723 6.03473 1.45936C5.76586 1.40149 5.48729 1.4062 5.22054 1.47312C3.70532 1.84925 2.36387 2.73129 1.41802 3.97335C0.472171 5.21541 -0.0214156 6.74311 0.0188879 8.30379C0.0591913 9.86447 0.63097 11.3647 1.63967 12.5562C2.64836 13.7478 4.03355 14.5594 5.56616 14.8569C7.28935 15.1867 9.07344 14.8453 10.5531 13.9025C12.0327 12.9596 13.0959 11.4868 13.5249 9.78562C13.5921 9.51852 13.597 9.23956 13.5392 8.97027C13.4815 8.70097 13.3626 8.44856 13.1918 8.2325C13.0139 8.00528 12.7869 7.82133 12.5278 7.69446C12.2686 7.56759 11.9841 7.5011 11.6955 7.5ZM12.313 9.48C12.0737 10.4437 11.5828 11.3265 10.8903 12.0381C10.1979 12.7498 9.32887 13.2648 8.37211 13.5304C7.41536 13.796 6.40523 13.8027 5.44504 13.5498C4.48484 13.2969 3.60905 12.7935 2.90723 12.0911C2.20541 11.3887 1.70275 10.5125 1.45068 9.55212C1.1986 8.59172 1.20614 7.58159 1.47254 6.62506C1.73893 5.66853 2.25462 4.79993 2.96685 4.10809C3.67908 3.41625 4.5623 2.926 5.52616 2.6875C5.60862 2.6669 5.69476 2.66589 5.77768 2.68456C5.86059 2.70322 5.93799 2.74105 6.00366 2.795C6.08122 2.85413 6.14411 2.93033 6.18747 3.01769C6.23082 3.10505 6.25347 3.20122 6.25366 3.29875V6.25C6.25366 6.91304 6.51706 7.54892 6.9859 8.01776C7.45474 8.48661 8.09062 8.75 8.75366 8.75H11.6987C11.797 8.7504 11.894 8.77311 11.9824 8.81641C12.0707 8.85971 12.1481 8.92248 12.2087 9C12.2618 9.06659 12.2988 9.14457 12.3168 9.22784C12.3348 9.3111 12.3333 9.39741 12.3124 9.48H12.313Z" fill="#2A6049"/>
<path d="M14.782 4.65381C14.4942 3.59598 13.9352 2.63162 13.1603 1.85617C12.3854 1.08072 11.4215 0.521051 10.3638 0.232556C10.253 0.20275 10.1387 0.187621 10.0238 0.187556C9.85869 0.185987 9.69487 0.217161 9.54184 0.279277C9.38881 0.341392 9.2496 0.433218 9.13227 0.549448C9.01493 0.665678 8.9218 0.804007 8.85824 0.956443C8.79468 1.10888 8.76196 1.2724 8.76196 1.43756V4.37506C8.76196 4.87234 8.95951 5.34925 9.31114 5.70088C9.66277 6.05251 10.1397 6.25006 10.637 6.25006H13.5863C13.7793 6.2482 13.9691 6.20189 14.1413 6.11473C14.3134 6.02757 14.4631 5.9019 14.5787 5.74749C14.6944 5.59307 14.7729 5.41407 14.8081 5.22439C14.8434 5.03471 14.8344 4.83946 14.782 4.65381ZM13.2207 5.00006H10.6345C10.4687 5.00006 10.3097 4.93421 10.1925 4.817C10.0753 4.69979 10.0095 4.54082 10.0095 4.37506L10.0045 1.44193C10.009 1.43862 10.0145 1.43667 10.0201 1.43631H10.0363C10.8877 1.66823 11.6632 2.11938 12.2857 2.74471C12.9082 3.37004 13.3558 4.14769 13.5838 5.00006H13.2207Z" fill="#2A6049"/>
</svg>
