<svg width="28" height="28" viewBox="0 0 28 28" fill="none" xmlns="http://www.w3.org/2000/svg">
<rect width="28" height="28" rx="8" fill="#7C9E7F"/>
<path d="M11.5189 16.2631L18.9783 9.07961L18.9783 9.07959C19.4594 8.61635 20.2156 8.6453 20.6622 9.14189C21.1044 9.63363 21.0782 10.4012 20.602 10.8597C20.602 10.8597 20.602 10.8597 20.602 10.8597L12.2864 18.8679C12.2595 18.8969 12.2306 18.9255 12.1996 18.953L11.5189 16.2631ZM11.5189 16.2631L9.84139 14.238L11.5189 16.2631ZM10.3643 18.6323L8.03244 15.8173L8.0323 15.8171C7.61085 15.3075 7.66716 14.5419 8.16201 14.1038C8.66184 13.6612 9.41567 13.7233 9.84125 14.2378L10.3643 18.6323ZM10.3643 18.6323L10.3624 18.634L10.5166 18.8201C10.5334 18.8404 10.5507 18.86 10.5685 18.8788L10.6827 19.0167L10.7014 19.0002C11.1384 19.3429 11.7649 19.3385 12.1995 18.9531L10.3643 18.6323Z" fill="#EDF4F5" stroke="#EDF4F5" stroke-width="0.5"/>
</svg>
