<svg width="15" height="15" viewBox="0 0 15 15" fill="none" xmlns="http://www.w3.org/2000/svg">
<g clip-path="url(#clip0_1557_5713)">
<path d="M7.5 11C7.00555 11 6.5222 10.8534 6.11107 10.5787C5.69995 10.304 5.37952 9.91353 5.1903 9.45671C5.00108 8.99989 4.95157 8.49723 5.04804 8.01228C5.1445 7.52732 5.3826 7.08187 5.73223 6.73223C6.08186 6.3826 6.52732 6.1445 7.01227 6.04804C7.49723 5.95157 7.99989 6.00108 8.45671 6.1903C8.91352 6.37952 9.30397 6.69995 9.57867 7.11108C9.85338 7.5222 10 8.00555 10 8.5C10 9.16304 9.73661 9.79893 9.26777 10.2678C8.79893 10.7366 8.16304 11 7.5 11ZM7.5 7.25C7.25277 7.25 7.0111 7.32331 6.80554 7.46066C6.59998 7.59802 6.43976 7.79324 6.34515 8.02165C6.25054 8.25005 6.22579 8.50139 6.27402 8.74386C6.32225 8.98634 6.4413 9.20907 6.61612 9.38388C6.79093 9.5587 7.01366 9.67775 7.25614 9.72598C7.49861 9.77421 7.74995 9.74946 7.97835 9.65485C8.20676 9.56024 8.40199 9.40003 8.53934 9.19446C8.67669 8.9889 8.75 8.74723 8.75 8.5C8.75 8.16848 8.6183 7.85054 8.38388 7.61612C8.14946 7.3817 7.83152 7.25 7.5 7.25ZM11.25 15.375C11.25 14.3804 10.8549 13.4266 10.1517 12.7234C9.44839 12.0201 8.49456 11.625 7.5 11.625C6.50544 11.625 5.55161 12.0201 4.84835 12.7234C4.14509 13.4266 3.75 14.3804 3.75 15.375C3.75 15.5408 3.81585 15.6997 3.93306 15.8169C4.05027 15.9342 4.20924 16 4.375 16C4.54076 16 4.69973 15.9342 4.81694 15.8169C4.93415 15.6997 5 15.5408 5 15.375C5 14.712 5.26339 14.0761 5.73223 13.6072C6.20107 13.1384 6.83696 12.875 7.5 12.875C8.16304 12.875 8.79893 13.1384 9.26777 13.6072C9.73661 14.0761 10 14.712 10 15.375C10 15.5408 10.0658 15.6997 10.1831 15.8169C10.3003 15.9342 10.4592 16 10.625 16C10.7908 16 10.9497 15.9342 11.0669 15.8169C11.1842 15.6997 11.25 15.5408 11.25 15.375ZM11.25 6C10.7555 6 10.2722 5.85338 9.86107 5.57868C9.44995 5.30397 9.12952 4.91352 8.9403 4.45671C8.75108 3.99989 8.70157 3.49723 8.79804 3.01228C8.8945 2.52732 9.1326 2.08187 9.48223 1.73223C9.83186 1.3826 10.2773 1.1445 10.7623 1.04804C11.2472 0.951575 11.7499 1.00108 12.2067 1.1903C12.6635 1.37952 13.054 1.69995 13.3287 2.11108C13.6034 2.5222 13.75 3.00555 13.75 3.5C13.75 4.16304 13.4866 4.79893 13.0178 5.26777C12.5489 5.73661 11.913 6 11.25 6ZM11.25 2.25C11.0028 2.25 10.7611 2.32331 10.5555 2.46066C10.35 2.59802 10.1898 2.79324 10.0951 3.02165C10.0005 3.25005 9.97579 3.50139 10.024 3.74386C10.0722 3.98634 10.1913 4.20907 10.3661 4.38388C10.5409 4.5587 10.7637 4.67775 11.0061 4.72598C11.2486 4.77421 11.4999 4.74946 11.7284 4.65485C11.9568 4.56024 12.152 4.40003 12.2893 4.19446C12.4267 3.9889 12.5 3.74723 12.5 3.5C12.5 3.16848 12.3683 2.85054 12.1339 2.61612C11.8995 2.3817 11.5815 2.25 11.25 2.25ZM15 10.375C14.999 9.38074 14.6036 8.42749 13.9006 7.72445C13.1975 7.0214 12.2443 6.62599 11.25 6.625C11.0842 6.625 10.9253 6.69085 10.8081 6.80806C10.6908 6.92527 10.625 7.08424 10.625 7.25C10.625 7.41576 10.6908 7.57473 10.8081 7.69194C10.9253 7.80915 11.0842 7.875 11.25 7.875C11.913 7.875 12.5489 8.13839 13.0178 8.60723C13.4866 9.07607 13.75 9.71196 13.75 10.375C13.75 10.5408 13.8158 10.6997 13.9331 10.8169C14.0503 10.9342 14.2092 11 14.375 11C14.5408 11 14.6997 10.9342 14.8169 10.8169C14.9342 10.6997 15 10.5408 15 10.375ZM3.75 6C3.25555 6 2.7722 5.85338 2.36107 5.57868C1.94995 5.30397 1.62952 4.91352 1.4403 4.45671C1.25108 3.99989 1.20157 3.49723 1.29804 3.01228C1.3945 2.52732 1.6326 2.08187 1.98223 1.73223C2.33186 1.3826 2.77732 1.1445 3.26227 1.04804C3.74723 0.951575 4.24989 1.00108 4.70671 1.1903C5.16352 1.37952 5.55397 1.69995 5.82867 2.11108C6.10338 2.5222 6.25 3.00555 6.25 3.5C6.25 4.16304 5.98661 4.79893 5.51777 5.26777C5.04893 5.73661 4.41304 6 3.75 6ZM3.75 2.25C3.50277 2.25 3.2611 2.32331 3.05554 2.46066C2.84998 2.59802 2.68976 2.79324 2.59515 3.02165C2.50054 3.25005 2.47579 3.50139 2.52402 3.74386C2.57225 3.98634 2.6913 4.20907 2.86612 4.38388C3.04093 4.5587 3.26366 4.67775 3.50614 4.72598C3.74861 4.77421 3.99995 4.74946 4.22835 4.65485C4.45676 4.56024 4.65199 4.40003 4.78934 4.19446C4.92669 3.9889 5 3.74723 5 3.5C5 3.16848 4.8683 2.85054 4.63388 2.61612C4.39946 2.3817 4.08152 2.25 3.75 2.25ZM1.25 10.375C1.25 9.71196 1.51339 9.07607 1.98223 8.60723C2.45107 8.13839 3.08696 7.875 3.75 7.875C3.91576 7.875 4.07473 7.80915 4.19194 7.69194C4.30915 7.57473 4.375 7.41576 4.375 7.25C4.375 7.08424 4.30915 6.92527 4.19194 6.80806C4.07473 6.69085 3.91576 6.625 3.75 6.625C2.75574 6.62599 1.80249 7.0214 1.09945 7.72445C0.3964 8.42749 0.000992769 9.38074 0 10.375C0 10.5408 0.065848 10.6997 0.183058 10.8169C0.300269 10.9342 0.45924 11 0.625 11C0.79076 11 0.949732 10.9342 1.06694 10.8169C1.18415 10.6997 1.25 10.5408 1.25 10.375Z" fill="#2A6049"/>
</g>
<defs>
<clipPath id="clip0_1557_5713">
<rect width="15" height="15" fill="white"/>
</clipPath>
</defs>
</svg>
