<svg width="157" height="103" viewBox="0 0 157 103" fill="none" xmlns="http://www.w3.org/2000/svg">
<path d="M119.617 0H32.5207C28.5122 0 25.2627 3.24954 25.2627 7.25805V94.3547C25.2627 98.3632 28.5122 101.613 32.5207 101.613H119.617C123.626 101.613 126.875 98.3632 126.875 94.3547V7.25805C126.875 3.24954 123.626 0 119.617 0Z" fill="url(#paint0_linear_5881_25894)"/>
<g filter="url(#filter0_d_5881_25894)">
<path d="M107.163 7.18457H10.1751C8.19126 7.18457 6.58301 8.79282 6.58301 10.7767V28.7373C6.58301 30.7212 8.19126 32.3295 10.1751 32.3295H107.163C109.146 32.3295 110.755 30.7212 110.755 28.7373V10.7767C110.755 8.79282 109.146 7.18457 107.163 7.18457Z" fill="white"/>
</g>
<path d="M56.1537 12.9312H37.4746C36.2843 12.9312 35.3193 13.8961 35.3193 15.0864C35.3193 16.2768 36.2843 17.2417 37.4746 17.2417H56.1537C57.344 17.2417 58.3089 16.2768 58.3089 15.0864C58.3089 13.8961 57.344 12.9312 56.1537 12.9312Z" fill="#F1F1F5"/>
<path d="M69.0853 22.2695H37.4746C36.2843 22.2695 35.3193 23.2345 35.3193 24.4248C35.3193 25.6151 36.2843 26.5801 37.4746 26.5801H69.0853C70.2757 26.5801 71.2406 25.6151 71.2406 24.4248C71.2406 23.2345 70.2757 22.2695 69.0853 22.2695Z" fill="#E3E5ED"/>
<path d="M25.9824 9.34082H12.3324C10.3485 9.34082 8.74023 10.9491 8.74023 12.9329V26.583C8.74023 28.5669 10.3485 30.1752 12.3324 30.1752H25.9824C27.9663 30.1752 29.5746 28.5669 29.5746 26.583V12.9329C29.5746 10.9491 27.9663 9.34082 25.9824 9.34082Z" fill="#ABBDD9"/>
<path d="M17.5218 22.1145H18.9587L18.9745 21.5613C18.9745 20.8343 19.4328 20.6446 20.0808 20.4392C20.7309 20.2542 21.303 19.8627 21.7108 19.3238C22.1186 18.7848 22.3398 18.1278 22.341 17.4519C22.3552 17.0393 22.2837 16.6282 22.1308 16.2447C21.9779 15.8612 21.7471 15.5136 21.4529 15.2238C21.1588 14.9341 20.8077 14.7087 20.4219 14.5617C20.036 14.4147 19.6239 14.3494 19.2115 14.3699C18.7758 14.3604 18.3426 14.4395 17.9383 14.6025C17.534 14.7654 17.167 15.0088 16.8596 15.3178C16.5522 15.6268 16.3107 15.9951 16.1499 16.4002C15.9891 16.8053 15.9122 17.2389 15.924 17.6747H17.4097C17.4041 17.4341 17.4465 17.1948 17.5346 16.9708C17.6226 16.7468 17.7544 16.5427 17.9224 16.3703C18.0903 16.198 18.291 16.0609 18.5126 15.967C18.7342 15.8732 18.9723 15.8246 19.213 15.824C19.43 15.8114 19.6472 15.8457 19.8498 15.9245C20.0524 16.0033 20.2356 16.1249 20.3871 16.2808C20.5385 16.4368 20.6546 16.6235 20.7275 16.8283C20.8003 17.0331 20.8282 17.2512 20.8093 17.4678C20.7998 17.8183 20.6779 18.1564 20.4616 18.4325C20.2453 18.7085 19.9462 18.9077 19.6081 19.0009L19.0865 19.2078C18.5759 19.3308 18.1301 19.6411 17.8373 20.0773C17.5446 20.5134 17.4264 21.0436 17.506 21.5628L17.5218 22.1145ZM18.233 25.5299C18.3737 25.5349 18.514 25.5117 18.6456 25.4615C18.7771 25.4114 18.8973 25.3354 18.999 25.238C19.1006 25.1406 19.1817 25.0238 19.2375 24.8945C19.2933 24.7653 19.3226 24.6261 19.3236 24.4853C19.3224 24.3447 19.2929 24.2057 19.2371 24.0766C19.1812 23.9475 19.1001 23.8309 18.9984 23.7336C18.8968 23.6364 18.7767 23.5605 18.6452 23.5105C18.5138 23.4604 18.3736 23.4372 18.233 23.4422C18.0925 23.4372 17.9523 23.4604 17.8209 23.5105C17.6894 23.5605 17.5693 23.6364 17.4676 23.7336C17.366 23.8309 17.2848 23.9475 17.229 24.0766C17.1732 24.2057 17.1437 24.3447 17.1425 24.4853C17.1435 24.6261 17.1728 24.7653 17.2286 24.8945C17.2843 25.0238 17.3655 25.1406 17.4671 25.238C17.5688 25.3354 17.689 25.4114 17.8205 25.4615C17.9521 25.5117 18.0923 25.5349 18.233 25.5299Z" fill="white"/>
<g filter="url(#filter1_d_5881_25894)">
<path d="M50.0023 37.2935H146.99C147.942 37.2935 148.856 37.6719 149.53 38.3456C150.203 39.0192 150.582 39.9329 150.582 40.8856V58.8462C150.582 59.7989 150.203 60.7126 149.53 61.3862C148.856 62.0599 147.942 62.4383 146.99 62.4383H50.0023C49.0496 62.4383 48.1359 62.0599 47.4623 61.3862C46.7886 60.7126 46.4102 59.7989 46.4102 58.8462V40.8856C46.4102 39.9329 46.7886 39.0192 47.4623 38.3456C48.1359 37.6719 49.0496 37.2935 50.0023 37.2935V37.2935Z" fill="white"/>
</g>
<path d="M87.0453 43.8242H68.3662C67.1759 43.8242 66.2109 44.7892 66.2109 45.9795C66.2109 47.1698 67.1759 48.1348 68.3662 48.1348H87.0453C88.2356 48.1348 89.2006 47.1698 89.2006 45.9795C89.2006 44.7892 88.2356 43.8242 87.0453 43.8242Z" fill="#F1F1F5"/>
<path d="M99.9769 53.1626H68.3662C67.1759 53.1626 66.2109 54.1275 66.2109 55.3179C66.2109 56.5082 67.1759 57.4731 68.3662 57.4731H99.9769C101.167 57.4731 102.132 56.5082 102.132 55.3179C102.132 54.1275 101.167 53.1626 99.9769 53.1626Z" fill="#E3E5ED"/>
<path d="M56.8711 40.2319H43.221C41.2372 40.2319 39.6289 41.8402 39.6289 43.8241V57.4741C39.6289 59.458 41.2372 61.0663 43.221 61.0663H56.8711C58.855 61.0663 60.4632 59.458 60.4632 57.4741V43.8241C60.4632 41.8402 58.855 40.2319 56.8711 40.2319Z" fill="#ABBDD9"/>
<path d="M48.4095 53.0056H49.8464L49.8622 52.4525C49.8622 51.7254 50.3205 51.5357 50.9685 51.3303C51.6186 51.1454 52.1907 50.7538 52.5985 50.2149C53.0063 49.6759 53.2275 49.0189 53.2287 48.3431C53.2429 47.9304 53.1713 47.5193 53.0185 47.1358C52.8656 46.7523 52.6348 46.4047 52.3406 46.115C52.0465 45.8252 51.6954 45.5998 51.3095 45.4528C50.9237 45.3058 50.5116 45.2405 50.0992 45.261C49.6634 45.2515 49.2303 45.3306 48.826 45.4936C48.4217 45.6565 48.0547 45.8999 47.7473 46.2089C47.4399 46.5179 47.1984 46.8862 47.0376 47.2913C46.8768 47.6965 46.7999 48.13 46.8117 48.5658H48.2974C48.2918 48.3252 48.3342 48.0859 48.4223 47.8619C48.5103 47.6379 48.6421 47.4338 48.8101 47.2614C48.978 47.0891 49.1787 46.952 49.4003 46.8582C49.6219 46.7643 49.86 46.7157 50.1007 46.7151C50.3177 46.7025 50.5349 46.7368 50.7375 46.8156C50.9401 46.8945 51.1233 47.016 51.2748 47.1719C51.4262 47.3279 51.5423 47.5146 51.6152 47.7194C51.688 47.9242 51.7159 48.1423 51.697 48.3589C51.6874 48.7094 51.5656 49.0476 51.3493 49.3236C51.133 49.5996 50.8339 49.7988 50.4958 49.892L49.9742 50.0989C49.4636 50.2219 49.0178 50.5322 48.725 50.9684C48.4323 51.4045 48.3141 51.9347 48.3937 52.4539L48.4095 53.0056ZM49.1207 56.421C49.2614 56.426 49.4017 56.4028 49.5333 56.3526C49.6648 56.3025 49.785 56.2265 49.8867 56.1291C49.9883 56.0317 50.0694 55.9149 50.1252 55.7856C50.181 55.6564 50.2102 55.5172 50.2113 55.3764C50.2101 55.2358 50.1806 55.0968 50.1248 54.9677C50.0689 54.8386 49.9878 54.722 49.8861 54.6247C49.7845 54.5275 49.6644 54.4516 49.5329 54.4016C49.4015 54.3515 49.2613 54.3283 49.1207 54.3333C48.9802 54.3283 48.84 54.3515 48.7085 54.4016C48.5771 54.4516 48.457 54.5275 48.3553 54.6247C48.2537 54.722 48.1725 54.8386 48.1167 54.9677C48.0608 55.0968 48.0314 55.2358 48.0302 55.3764C48.0312 55.5172 48.0605 55.6564 48.1163 55.7856C48.172 55.9149 48.2532 56.0317 48.3548 56.1291C48.4565 56.2265 48.5767 56.3025 48.7082 56.3526C48.8398 56.4028 48.98 56.426 49.1207 56.421Z" fill="white"/>
<g filter="url(#filter2_d_5881_25894)">
<path d="M10.1751 67.9414H107.163C108.115 67.9414 109.029 68.3199 109.703 68.9935C110.376 69.6672 110.755 70.5808 110.755 71.5335V89.4942C110.755 90.4469 110.376 91.3605 109.703 92.0342C109.029 92.7078 108.115 93.0863 107.163 93.0863H10.1751C9.22244 93.0863 8.30877 92.7078 7.63512 92.0342C6.96146 91.3605 6.58301 90.4469 6.58301 89.4942V71.5335C6.58301 70.5808 6.96146 69.6672 7.63512 68.9935C8.30877 68.3199 9.22244 67.9414 10.1751 67.9414V67.9414Z" fill="white"/>
</g>
<path d="M56.1537 73.6875H37.4746C36.2843 73.6875 35.3193 74.6524 35.3193 75.8428C35.3193 77.0331 36.2843 77.9981 37.4746 77.9981H56.1537C57.344 77.9981 58.3089 77.0331 58.3089 75.8428C58.3089 74.6524 57.344 73.6875 56.1537 73.6875Z" fill="#F1F1F5"/>
<path d="M69.0853 83.0259H37.4746C36.2843 83.0259 35.3193 83.9908 35.3193 85.1812C35.3193 86.3715 36.2843 87.3364 37.4746 87.3364H69.0853C70.2757 87.3364 71.2406 86.3715 71.2406 85.1812C71.2406 83.9908 70.2757 83.0259 69.0853 83.0259Z" fill="#E3E5ED"/>
<path d="M25.9824 70.0957H12.3324C10.3485 70.0957 8.74023 71.704 8.74023 73.6878V87.3379C8.74023 89.3218 10.3485 90.93 12.3324 90.93H25.9824C27.9663 90.93 29.5746 89.3218 29.5746 87.3379V73.6878C29.5746 71.704 27.9663 70.0957 25.9824 70.0957Z" fill="#ABBDD9"/>
<path d="M17.5228 82.8699H18.9596L18.9754 82.3167C18.9754 81.5897 19.4338 81.4 20.0818 81.1945C20.7318 81.0096 21.304 80.6181 21.7118 80.0791C22.1196 79.5402 22.3408 78.8831 22.342 78.2073C22.3562 77.7947 22.2846 77.3836 22.1318 77.0001C21.9789 76.6165 21.7481 76.2689 21.4539 75.9792C21.1598 75.6895 20.8087 75.464 20.4228 75.317C20.037 75.17 19.6249 75.1047 19.2125 75.1253C18.7767 75.1158 18.3436 75.1949 17.9393 75.3578C17.535 75.5208 17.168 75.7641 16.8606 76.0732C16.5532 76.3822 16.3117 76.7504 16.1509 77.1556C15.9901 77.5607 15.9132 77.9943 15.925 78.43H17.4107C17.4051 78.1894 17.4475 77.9502 17.5355 77.7262C17.6236 77.5022 17.7554 77.2981 17.9234 77.1257C18.0913 76.9533 18.292 76.8162 18.5136 76.7224C18.7352 76.6286 18.9733 76.58 19.214 76.5794C19.431 76.5668 19.6482 76.6011 19.8507 76.6799C20.0533 76.7587 20.2366 76.8802 20.388 77.0362C20.5395 77.1921 20.6556 77.3788 20.7284 77.5837C20.8013 77.7885 20.8292 78.0066 20.8103 78.2231C20.8007 78.5736 20.6788 78.9118 20.4626 79.1878C20.2463 79.4638 19.9471 79.6631 19.6091 79.7562L19.0875 79.9631C18.5769 80.0862 18.131 80.3965 17.8383 80.8326C17.5456 81.2688 17.4274 81.799 17.507 82.3181L17.5228 82.8699ZM18.234 86.2853C18.3747 86.2903 18.515 86.267 18.6465 86.2169C18.7781 86.1667 18.8983 86.0907 18.9999 85.9933C19.1016 85.896 19.1827 85.7792 19.2385 85.6499C19.2942 85.5206 19.3235 85.3815 19.3246 85.2407C19.3233 85.1 19.2939 84.9611 19.2381 84.8319C19.1822 84.7028 19.1011 84.5862 18.9994 84.489C18.8978 84.3918 18.7777 84.3159 18.6462 84.2658C18.5148 84.2158 18.3746 84.1926 18.234 84.1975C18.0934 84.1926 17.9533 84.2158 17.8218 84.2658C17.6904 84.3159 17.5703 84.3918 17.4686 84.489C17.367 84.5862 17.2858 84.7028 17.23 84.8319C17.1741 84.9611 17.1447 85.1 17.1435 85.2407C17.1445 85.3815 17.1738 85.5206 17.2296 85.6499C17.2853 85.7792 17.3664 85.896 17.4681 85.9933C17.5698 86.0907 17.6899 86.1667 17.8215 86.2169C17.9531 86.267 18.0933 86.2903 18.234 86.2853Z" fill="white"/>
<defs>
<filter id="filter0_d_5881_25894" x="0.583008" y="4.18457" width="116.172" height="37.145" filterUnits="userSpaceOnUse" color-interpolation-filters="sRGB">
<feFlood flood-opacity="0" result="BackgroundImageFix"/>
<feColorMatrix in="SourceAlpha" type="matrix" values="0 0 0 0 0 0 0 0 0 0 0 0 0 0 0 0 0 0 127 0" result="hardAlpha"/>
<feOffset dy="3"/>
<feGaussianBlur stdDeviation="3"/>
<feColorMatrix type="matrix" values="0 0 0 0 0 0 0 0 0 0 0 0 0 0 0 0 0 0 0.05 0"/>
<feBlend mode="normal" in2="BackgroundImageFix" result="effect1_dropShadow_5881_25894"/>
<feBlend mode="normal" in="SourceGraphic" in2="effect1_dropShadow_5881_25894" result="shape"/>
</filter>
<filter id="filter1_d_5881_25894" x="40.4102" y="34.2935" width="116.172" height="37.145" filterUnits="userSpaceOnUse" color-interpolation-filters="sRGB">
<feFlood flood-opacity="0" result="BackgroundImageFix"/>
<feColorMatrix in="SourceAlpha" type="matrix" values="0 0 0 0 0 0 0 0 0 0 0 0 0 0 0 0 0 0 127 0" result="hardAlpha"/>
<feOffset dy="3"/>
<feGaussianBlur stdDeviation="3"/>
<feColorMatrix type="matrix" values="0 0 0 0 0 0 0 0 0 0 0 0 0 0 0 0 0 0 0.05 0"/>
<feBlend mode="normal" in2="BackgroundImageFix" result="effect1_dropShadow_5881_25894"/>
<feBlend mode="normal" in="SourceGraphic" in2="effect1_dropShadow_5881_25894" result="shape"/>
</filter>
<filter id="filter2_d_5881_25894" x="0.583008" y="64.9414" width="116.172" height="37.145" filterUnits="userSpaceOnUse" color-interpolation-filters="sRGB">
<feFlood flood-opacity="0" result="BackgroundImageFix"/>
<feColorMatrix in="SourceAlpha" type="matrix" values="0 0 0 0 0 0 0 0 0 0 0 0 0 0 0 0 0 0 127 0" result="hardAlpha"/>
<feOffset dy="3"/>
<feGaussianBlur stdDeviation="3"/>
<feColorMatrix type="matrix" values="0 0 0 0 0 0 0 0 0 0 0 0 0 0 0 0 0 0 0.05 0"/>
<feBlend mode="normal" in2="BackgroundImageFix" result="effect1_dropShadow_5881_25894"/>
<feBlend mode="normal" in="SourceGraphic" in2="effect1_dropShadow_5881_25894" result="shape"/>
</filter>
<linearGradient id="paint0_linear_5881_25894" x1="76.0691" y1="0" x2="76.0691" y2="101.613" gradientUnits="userSpaceOnUse">
<stop stop-color="#EBEDF2"/>
<stop offset="1" stop-color="#F4F4F8"/>
</linearGradient>
</defs>
</svg>
